<?xml version="1.0" encoding="iso-8859-1"?>
<!-- Generator: Adobe Illustrator 19.0.0, SVG Export Plug-In . SVG Version: 6.00 Build 0)  -->
<svg version="1.1" id="Layer_1" xmlns="http://www.w3.org/2000/svg" xmlns:xlink="http://www.w3.org/1999/xlink" x="0px" y="0px"
	 viewBox="0 0 505 505" style="enable-background:new 0 0 505 505;" xml:space="preserve">
<g>
	<circle style="fill:#077FD5;" cx="315.5" cy="37.5" r="30"/>
	<circle style="fill:#077FD5;" cx="84.5" cy="405.5" r="60"/>
	<circle style="fill:#077FD5;" cx="342.5" cy="457.5" r="40"/>
	<circle style="fill:#077FD5;" cx="462.5" cy="325.5" r="30"/>
	<circle style="fill:#00E2F0;" cx="148.5" cy="51.5" r="40"/>
	<circle style="fill:#00E2F0;" cx="42.5" cy="165.5" r="30"/>
	<circle style="fill:#00E2F0;" cx="460.5" cy="175.5" r="30"/>
	<path style="fill:#0053C0;" d="M84.5,445.5c-29.728,0-54.392-21.625-59.155-50c-0.546,3.254-0.845,6.591-0.845,10
		c0,33.137,26.863,60,60,60s60-26.863,60-60c0-3.409-0.299-6.746-0.845-10C138.892,423.875,114.228,445.5,84.5,445.5z"/>
	<g>
		<path d="M315.5,75c20.678,0,37.5-16.822,37.5-37.5S336.178,0,315.5,0S278,16.822,278,37.5S294.822,75,315.5,75z M315.5,15
			c12.407,0,22.5,10.094,22.5,22.5S327.907,60,315.5,60S293,49.906,293,37.5S303.093,15,315.5,15z"/>
		<path d="M84.5,338C47.28,338,17,368.28,17,405.5S47.28,473,84.5,473s67.5-30.28,67.5-67.5S121.72,338,84.5,338z M84.5,458
			C55.551,458,32,434.448,32,405.5S55.551,353,84.5,353s52.5,23.552,52.5,52.5S113.449,458,84.5,458z"/>
		<path d="M342.5,410c-26.191,0-47.5,21.309-47.5,47.5s21.309,47.5,47.5,47.5s47.5-21.309,47.5-47.5S368.691,410,342.5,410z
			 M342.5,490c-17.92,0-32.5-14.579-32.5-32.5s14.58-32.5,32.5-32.5s32.5,14.579,32.5,32.5S360.42,490,342.5,490z"/>
		<path d="M462.5,288c-20.678,0-37.5,16.822-37.5,37.5s16.822,37.5,37.5,37.5s37.5-16.822,37.5-37.5S483.178,288,462.5,288z
			 M462.5,348c-12.407,0-22.5-10.094-22.5-22.5s10.093-22.5,22.5-22.5s22.5,10.094,22.5,22.5S474.907,348,462.5,348z"/>
		<path d="M148.5,99c26.191,0,47.5-21.309,47.5-47.5S174.691,4,148.5,4S101,25.309,101,51.5S122.309,99,148.5,99z M148.5,19
			c17.92,0,32.5,14.579,32.5,32.5S166.42,84,148.5,84S116,69.421,116,51.5S130.58,19,148.5,19z"/>
		<path d="M80,165.5c0-20.678-16.822-37.5-37.5-37.5S5,144.822,5,165.5S21.822,203,42.5,203S80,186.178,80,165.5z M20,165.5
			c0-12.406,10.093-22.5,22.5-22.5S65,153.094,65,165.5S54.907,188,42.5,188S20,177.906,20,165.5z"/>
		<path d="M392.186,416.653l9.846,11.316c16.408-14.275,30.734-30.762,42.579-48.999l-12.579-8.17
			C420.946,387.867,407.541,403.294,392.186,416.653z"/>
		<path d="M249.5,470c-32.64,0-64.032-7.06-93.306-20.983l-6.443,13.545C181.053,477.451,214.614,485,249.5,485
			c10.476,0,21.089-0.72,31.544-2.139l-2.018-14.863C269.238,469.326,259.304,470,249.5,470z"/>
		<path d="M19.671,217.155C17.899,228.772,17,240.664,17,252.5c0,28.804,5.219,56.941,15.512,83.631l13.995-5.398
			C36.881,305.772,32,279.451,32,252.5c0-11.081,0.841-22.212,2.5-33.083L19.671,217.155z"/>
		<path d="M100.394,94.169L90.109,83.251c-9.723,9.159-18.697,19.192-26.674,29.82l11.997,9.004
			C82.896,112.131,91.294,102.742,100.394,94.169z"/>
		<path d="M249.5,35c3.767,0,7.63,0.102,11.483,0.302l0.777-14.98C257.65,20.108,253.525,20,249.5,20
			c-13.623,0-27.302,1.194-40.656,3.55l2.605,14.771C223.946,36.117,236.748,35,249.5,35z"/>
		<path d="M429.632,130.571l12.414-8.42c-18.775-27.681-43.817-51.453-72.418-68.746l-7.761,12.836
			C388.63,82.423,412.063,104.668,429.632,130.571z"/>
		<path d="M481.155,272.274c0.561-6.653,0.845-13.306,0.845-19.774c0-8.067-0.424-16.24-1.26-24.289l-14.92,1.549
			c0.783,7.537,1.18,15.188,1.18,22.74c0,6.05-0.267,12.278-0.792,18.515L481.155,272.274z"/>
		<path d="M423,175.5c0,20.678,16.822,37.5,37.5,37.5s37.5-16.822,37.5-37.5S481.178,138,460.5,138S423,154.822,423,175.5z
			 M460.5,153c12.407,0,22.5,10.094,22.5,22.5S472.907,198,460.5,198S438,187.906,438,175.5S448.093,153,460.5,153z"/>
		<rect x="167.326" y="422.6" transform="matrix(-0.9809 -0.1946 0.1946 -0.9809 360.0109 895.571)" width="113.347" height="15"/>
		<path d="M356.993,251.971l55.879,47.35l9.697-11.443l-52.248-44.274l48.827-30.653l-7.976-12.703l-52.857,33.183l-22.034-18.671
			l-7.987-122.997l-14.969,0.973l7.049,108.545l-61.286-51.932l37.36-59.059l-12.677-8.02l-36.239,57.287l-52.184-44.219
			l-9.697,11.443l53.785,45.575l-48.537,76.728l-61.065-22.291l15.202-89.954l-14.79-2.5l-14.74,87.223l-26.732-9.758l-5.145,14.09
			l29.335,10.708L95.285,321.21l14.79,2.5l17.217-101.876l55.401,20.224l-56.511,89.333l12.677,8.02l58.254-92.089l87.941,32.102
			l-128.921,80.935l7.976,12.703l138.777-87.122l23.547,8.633l6.393,98.455l14.969-0.973l-5.964-91.837l63.818,23.396l5.163-14.084
			l-70.043-25.677l-1.354-20.844L356.993,251.971z M344.987,241.798l-6.678,4.192l-0.677-10.424L344.987,241.798z M205.319,234.349
			l45.673-72.2l70.734,59.938l2.141,32.971l-22.729,14.269L205.319,234.349z M325.37,278.206l-6.418-2.353l6.02-3.779
			L325.37,278.206z"/>
	</g>
</g>
<g>
</g>
<g>
</g>
<g>
</g>
<g>
</g>
<g>
</g>
<g>
</g>
<g>
</g>
<g>
</g>
<g>
</g>
<g>
</g>
<g>
</g>
<g>
</g>
<g>
</g>
<g>
</g>
<g>
</g>
</svg>
