<?xml version="1.0" encoding="iso-8859-1"?>
<!-- Generator: Adobe Illustrator 19.0.0, SVG Export Plug-In . SVG Version: 6.00 Build 0)  -->
<svg version="1.1" id="Layer_1" xmlns="http://www.w3.org/2000/svg" xmlns:xlink="http://www.w3.org/1999/xlink" x="0px" y="0px"
	 viewBox="0 0 505 505" style="enable-background:new 0 0 505 505;" xml:space="preserve">
<g>
	<g>
		<circle style="fill:#E2324E;" cx="142.5" cy="252.5" r="95"/>
		<g>
			<path style="fill:#A00B3F;" d="M237.5,252.5c0,52.467-42.533,95-95,95s-95-42.533-95-95H237.5z"/>
		</g>
	</g>
	<g>
		<circle style="fill:#E2324E;" cx="362.5" cy="252.5" r="95"/>
		<g>
			<path style="fill:#A00B3F;" d="M457.5,252.5c0,52.467-42.533,95-95,95s-95-42.533-95-95H457.5z"/>
		</g>
	</g>
	<circle style="fill:#FFFFFF;" cx="142.5" cy="252.5" r="65"/>
	<circle style="fill:#FFFFFF;" cx="362.5" cy="252.5" r="65"/>
	<path style="fill:#D8D7DA;" d="M47.5,252.5c0-5.454,0.466-10.798,1.349-16H28c-11.322,0-20.5,9.178-20.5,20.5s9.178,20.5,20.5,20.5
		h22.831C48.664,269.533,47.5,261.153,47.5,252.5z"/>
	<path style="fill:#D8D7DA;" d="M477,236.5h-20.849c0.882,5.202,1.349,10.546,1.349,16c0,8.653-1.164,17.033-3.331,25H477
		c11.322,0,20.5-9.178,20.5-20.5S488.322,236.5,477,236.5z"/>
	<path style="fill:#ACABB1;" d="M35.368,277.5h15.464c-2.168-7.967-3.331-16.347-3.331-25c0-5.454,0.466-10.798,1.349-16H33.667
		c-0.765,5.225-1.167,10.566-1.167,16C32.5,261.097,33.493,269.466,35.368,277.5z"/>
	<path style="fill:#ACABB1;" d="M457.5,252.5c0,8.653-1.164,17.033-3.331,25h15.464c1.874-8.034,2.868-16.403,2.868-25
		c0-5.434-0.403-10.775-1.167-16h-15.181C457.034,241.702,457.5,247.046,457.5,252.5z"/>
	<path style="fill:#D8D7DA;" d="M142.5,216.5c30.912,0,56.765,21.585,63.356,50.5c1.063-4.665,1.644-9.513,1.644-14.5
		c0-35.898-29.102-65-65-65s-65,29.102-65,65c0,4.987,0.58,9.835,1.644,14.5C85.735,238.085,111.588,216.5,142.5,216.5z"/>
	<path style="fill:#D8D7DA;" d="M362.5,216.5c30.912,0,56.765,21.585,63.356,50.5c1.063-4.665,1.644-9.513,1.644-14.5
		c0-35.898-29.102-65-65-65s-65,29.102-65,65c0,4.987,0.58,9.835,1.644,14.5C305.735,238.085,331.588,216.5,362.5,216.5z"/>
	<g>
		<path d="M477,229h-14.722c-10.651-45.23-51.343-79-99.778-79c-29.564,0-56.24,12.587-74.965,32.677
			C281.521,169.604,268.308,160.5,253,160.5c-15.589,0-29.009,9.439-34.862,22.899C199.382,162.887,172.419,150,142.5,150
			c-48.435,0-89.127,33.77-99.778,79H28c-15.439,0-28,12.561-28,28s12.561,28,28,28h17.284c13.621,40.637,52.052,70,97.216,70
			c56.519,0,102.5-45.981,102.5-102.5c0-19.803-5.651-38.309-15.417-54H230c0-12.682,10.318-23,23-23
			c12.381,0,22.504,9.835,22.977,22.103C265.866,213.483,260,232.319,260,252.5c0,56.519,45.981,102.5,102.5,102.5
			c45.164,0,83.595-29.363,97.216-70H477c15.439,0,28-12.561,28-28S492.439,229,477,229z M41.495,270H28c-7.168,0-13-5.832-13-13
			s5.832-13,13-13h12.352c-0.003,0.038-0.004,0.076-0.007,0.114c-0.104,1.281-0.183,2.57-0.24,3.864
			c-0.01,0.217-0.017,0.433-0.025,0.649C40.032,249.913,40,251.203,40,252.5c0,1.339,0.034,2.669,0.085,3.996
			c0.009,0.224,0.015,0.448,0.026,0.672c0.059,1.298,0.142,2.59,0.248,3.875c0.017,0.2,0.036,0.399,0.053,0.599
			c0.12,1.345,0.258,2.685,0.43,4.015c0.001,0.004,0.001,0.009,0.002,0.013c0.172,1.333,0.375,2.657,0.598,3.974
			C41.462,269.763,41.475,269.882,41.495,270z M142.5,340c-40.581,0-74.795-27.771-84.645-65.305
			c-0.086-0.328-0.169-0.657-0.251-0.986c-0.114-0.455-0.228-0.909-0.334-1.366c-0.176-0.758-0.344-1.517-0.499-2.279
			c-0.058-0.281-0.108-0.565-0.163-0.848c-0.115-0.595-0.227-1.19-0.329-1.787c-0.051-0.297-0.1-0.594-0.148-0.892
			c-0.104-0.641-0.2-1.283-0.289-1.926c-0.031-0.224-0.065-0.448-0.094-0.673c-0.115-0.879-0.219-1.759-0.307-2.641
			c-0.01-0.101-0.017-0.204-0.027-0.305c-0.075-0.777-0.139-1.556-0.194-2.335c-0.018-0.255-0.033-0.512-0.049-0.768
			c-0.04-0.657-0.072-1.314-0.098-1.972c-0.01-0.254-0.021-0.507-0.029-0.762C55.017,254.272,55,253.386,55,252.5
			c0-1.124,0.028-2.25,0.071-3.376c0.007-0.18,0.013-0.36,0.021-0.539c0.05-1.114,0.119-2.229,0.211-3.342
			c0.01-0.121,0.022-0.24,0.032-0.361c0.197-2.273,0.485-4.538,0.856-6.782C63.08,196.68,99.157,165,142.5,165
			c48.248,0,87.5,39.252,87.5,87.5S190.748,340,142.5,340z M362.5,340c-48.248,0-87.5-39.252-87.5-87.5s39.252-87.5,87.5-87.5
			c43.343,0,79.42,31.68,86.308,73.1c0.372,2.245,0.659,4.51,0.856,6.782c0.01,0.12,0.022,0.24,0.032,0.361
			c0.092,1.113,0.161,2.227,0.211,3.342c0.008,0.179,0.014,0.359,0.021,0.539c0.043,1.126,0.071,2.252,0.071,3.376
			c0,0.886-0.017,1.772-0.044,2.657c-0.008,0.254-0.019,0.508-0.029,0.762c-0.026,0.658-0.058,1.315-0.098,1.972
			c-0.016,0.256-0.031,0.512-0.049,0.768c-0.055,0.78-0.118,1.558-0.194,2.335c-0.01,0.101-0.017,0.204-0.027,0.305
			c-0.089,0.882-0.192,1.763-0.307,2.641c-0.029,0.225-0.063,0.448-0.094,0.673c-0.089,0.643-0.186,1.285-0.289,1.926
			c-0.048,0.298-0.097,0.595-0.148,0.892c-0.103,0.597-0.214,1.192-0.329,1.787c-0.055,0.282-0.105,0.566-0.163,0.848
			c-0.155,0.762-0.323,1.521-0.499,2.279c-0.106,0.457-0.221,0.911-0.334,1.366c-0.082,0.329-0.165,0.658-0.251,0.986
			C437.295,312.229,403.081,340,362.5,340z M477,270h-13.495c0.02-0.118,0.034-0.237,0.053-0.356
			c0.223-1.317,0.426-2.641,0.598-3.974c0.001-0.005,0.001-0.009,0.002-0.013c0.171-1.33,0.31-2.67,0.43-4.015
			c0.018-0.2,0.037-0.399,0.053-0.599c0.107-1.285,0.19-2.577,0.248-3.875c0.01-0.224,0.017-0.448,0.026-0.672
			c0.051-1.326,0.085-2.657,0.085-3.996c0-1.297-0.032-2.587-0.081-3.873c-0.008-0.217-0.015-0.433-0.025-0.649
			c-0.057-1.294-0.135-2.583-0.24-3.864c-0.003-0.038-0.004-0.076-0.007-0.114H477c7.168,0,13,5.832,13,13S484.168,270,477,270z"/>
		<rect x="102.5" y="247" width="15" height="15"/>
		<rect x="162.5" y="247" width="15" height="15"/>
		<rect x="132.5" y="247" width="15" height="15"/>
		<rect x="355.5" y="247" width="15" height="15"/>
		<rect x="385.5" y="247" width="15" height="15"/>
		<rect x="325.5" y="247" width="15" height="15"/>
		<path d="M142.5,180c-39.977,0-72.5,32.523-72.5,72.5s32.523,72.5,72.5,72.5s72.5-32.523,72.5-72.5S182.477,180,142.5,180z
			 M142.5,310c-31.706,0-57.5-25.794-57.5-57.5s25.794-57.5,57.5-57.5s57.5,25.794,57.5,57.5S174.206,310,142.5,310z"/>
		<path d="M362.5,180c-39.977,0-72.5,32.523-72.5,72.5s32.523,72.5,72.5,72.5s72.5-32.523,72.5-72.5S402.477,180,362.5,180z
			 M362.5,310c-31.706,0-57.5-25.794-57.5-57.5s25.794-57.5,57.5-57.5s57.5,25.794,57.5,57.5S394.206,310,362.5,310z"/>
	</g>
</g>
<g>
</g>
<g>
</g>
<g>
</g>
<g>
</g>
<g>
</g>
<g>
</g>
<g>
</g>
<g>
</g>
<g>
</g>
<g>
</g>
<g>
</g>
<g>
</g>
<g>
</g>
<g>
</g>
<g>
</g>
</svg>
