<?xml version="1.0" encoding="iso-8859-1"?>
<!-- Generator: Adobe Illustrator 19.0.0, SVG Export Plug-In . SVG Version: 6.00 Build 0)  -->
<svg version="1.1" id="Layer_1" xmlns="http://www.w3.org/2000/svg" xmlns:xlink="http://www.w3.org/1999/xlink" x="0px" y="0px"
	 viewBox="0 0 505 505" style="enable-background:new 0 0 505 505;" xml:space="preserve">
<g>
	<rect x="102.5" y="244.5" style="fill:#BD8A53;" width="300" height="253"/>
	<rect x="102.5" y="477.5" style="fill:#AA6D3B;" width="300" height="20"/>
	<path style="fill:#D8D7DA;" d="M367.5,158.5v86h-51v-86c0-35.346-28.654-64-64-64h0c-35.346,0-64,28.654-64,64v86h-51v-86
		c0-63.513,51.487-115,115-115h0C316.013,43.5,367.5,94.987,367.5,158.5z"/>
	<path style="fill:#AA6D3B;" d="M252.5,397.5c-33.084,0-60-26.916-60-60s26.916-60,60-60s60,26.916,60,60S285.584,397.5,252.5,397.5
		z"/>
	<circle style="fill:#FF994D;" cx="252.5" cy="337.5" r="30"/>
	<rect x="137.5" y="224.5" style="fill:#ACABB1;" width="51" height="20"/>
	<rect x="316.5" y="224.5" style="fill:#ACABB1;" width="51" height="20"/>
	<path style="fill:#FFFFFF;" d="M376,384.5h-15v-15h15V384.5z M376,354.5h-15v-70h15V354.5z"/>
	<g>
		<path d="M375,158.5C375,90.953,320.047,36,252.5,36S130,90.953,130,158.5V237H95v78.716h15V252h20h66h113h66h20v238H110V360.716
			H95V505h315V237h-35V158.5z M196,237v-78.5c0-31.154,25.346-56.5,56.5-56.5s56.5,25.346,56.5,56.5V237H196z M324,237v-78.5
			c0-39.425-32.075-71.5-71.5-71.5c-39.425,0-71.5,32.075-71.5,71.5V237h-36v-78.5C145,99.225,193.224,51,252.5,51
			C311.775,51,360,99.225,360,158.5V237H324z"/>
		<rect x="245" y="433.5" width="15" height="15"/>
		<path d="M260,374.245c17.096-3.484,30-18.635,30-36.745c0-20.678-16.822-37.5-37.5-37.5S215,316.822,215,337.5
			c0,18.11,12.904,33.261,30,36.745V388.5h15V374.245z M230,337.5c0-12.406,10.093-22.5,22.5-22.5c12.406,0,22.5,10.094,22.5,22.5
			S264.906,360,252.5,360C240.093,360,230,349.906,230,337.5z"/>
		<rect x="245" y="403.5" width="15" height="15"/>
		<polygon points="158.197,361.196 168.803,371.804 202.391,338.216 168.803,304.628 158.197,315.235 181.178,338.216 		"/>
		<rect x="456.667" y="359" width="16.667" height="15"/>
		<rect x="490" y="359" width="15" height="15"/>
		<rect x="490" y="149.608" width="15" height="14.956"/>
		<rect x="490" y="119.695" width="15" height="14.956"/>
		<rect x="490" y="239.348" width="15" height="14.956"/>
		<rect x="490" y="209.435" width="15" height="14.956"/>
		<rect x="490" y="179.521" width="15" height="14.956"/>
		<rect x="490" y="29.956" width="15" height="14.956"/>
		<rect x="490" y="269.261" width="15" height="14.956"/>
		<rect x="490" y="89.782" width="15" height="14.956"/>
		<rect x="490" y="59.869" width="15" height="14.956"/>
		<rect x="490" y="299.174" width="15" height="14.956"/>
		<rect x="490" y="329.087" width="15" height="14.956"/>
		<rect x="490" width="15" height="15"/>
		<rect x="244.839" width="15.323" height="15"/>
		<rect x="183.549" width="15.322" height="15"/>
		<rect x="30.323" width="15.323" height="15"/>
		<rect x="60.968" width="15.323" height="15"/>
		<rect x="398.064" width="15.323" height="15"/>
		<rect x="214.194" width="15.323" height="15"/>
		<rect x="122.258" width="15.323" height="15"/>
		<rect x="152.903" width="15.323" height="15"/>
		<rect x="428.71" width="15.322" height="15"/>
		<rect x="306.129" width="15.323" height="15"/>
		<rect x="336.774" width="15.322" height="15"/>
		<rect x="91.613" width="15.322" height="15"/>
		<rect x="459.355" width="15.322" height="15"/>
		<rect x="367.42" width="15.322" height="15"/>
		<rect x="275.484" width="15.322" height="15"/>
		<rect width="15" height="15"/>
		<rect y="210.443" width="15" height="15.034"/>
		<rect y="240.512" width="15" height="15.034"/>
		<rect y="270.579" width="15" height="15.034"/>
		<rect y="300.647" width="15" height="15.034"/>
		<rect y="90.171" width="15" height="15.034"/>
		<rect y="60.103" width="15" height="15.034"/>
		<rect y="30.034" width="15" height="15.034"/>
		<rect y="120.238" width="15" height="15.034"/>
		<rect y="180.375" width="15" height="15.034"/>
		<rect y="150.307" width="15" height="15.034"/>
		<rect y="330.716" width="15" height="15"/>
		<rect x="61.168" y="330.716" width="15.39" height="15"/>
		<rect x="122.727" y="330.716" width="15.39" height="15"/>
		<rect x="30.39" y="330.716" width="15.39" height="15"/>
		<rect x="153.505" y="330.716" width="15.39" height="15"/>
		<rect x="91.948" y="330.716" width="15.389" height="15"/>
		<polygon points="432.5,359 424.5,359 424.5,374 432.5,374 439.5,374 440,374 440,359 439.5,359 		"/>
	</g>
</g>
<g>
</g>
<g>
</g>
<g>
</g>
<g>
</g>
<g>
</g>
<g>
</g>
<g>
</g>
<g>
</g>
<g>
</g>
<g>
</g>
<g>
</g>
<g>
</g>
<g>
</g>
<g>
</g>
<g>
</g>
</svg>
