<?xml version="1.0" encoding="iso-8859-1"?>
<!-- Generator: Adobe Illustrator 19.0.0, SVG Export Plug-In . SVG Version: 6.00 Build 0)  -->
<svg version="1.1" id="Layer_1" xmlns="http://www.w3.org/2000/svg" xmlns:xlink="http://www.w3.org/1999/xlink" x="0px" y="0px"
	 viewBox="0 0 505 505" style="enable-background:new 0 0 505 505;" xml:space="preserve">
<g>
	<path style="fill:#D8D7DA;" d="M437.5,421.5h-370c-33.137,0-60-26.863-60-60v76c0,33.137,26.863,60,60,60h370
		c33.137,0,60-26.863,60-60v-76C497.5,394.637,470.637,421.5,437.5,421.5z"/>
	<path style="fill:#FFFFFF;" d="M437.5,421.5h-370c-33.137,0-60-26.863-60-60v-294c0-33.137,26.863-60,60-60h370
		c33.137,0,60,26.863,60,60v294C497.5,394.637,470.637,421.5,437.5,421.5z"/>
	<rect x="97.5" y="57.5" style="fill:#00C6DA;" width="80" height="80"/>
	<rect x="213" y="57.5" style="fill:#00C6DA;" width="80" height="80"/>
	<rect x="328.5" y="57.5" style="fill:#00C6DA;" width="80" height="80"/>
	<rect x="97.5" y="173.5" style="fill:#00C6DA;" width="80" height="80"/>
	<rect x="213" y="173.5" style="fill:#00C6DA;" width="80" height="80"/>
	<rect x="328.5" y="173.5" style="fill:#00C6DA;" width="80" height="80"/>
	<rect x="97.5" y="289.5" style="fill:#00C6DA;" width="80" height="80"/>
	<rect x="213" y="289.5" style="fill:#00C6DA;" width="80" height="80"/>
	<rect x="328.5" y="289.5" style="fill:#00C6DA;" width="80" height="80"/>
	<polygon style="fill:#00E2F0;" points="97.5,137.5 97.5,57.5 177.5,57.5 	"/>
	<polygon style="fill:#00E2F0;" points="213,137.5 213,57.5 293,57.5 	"/>
	<polygon style="fill:#00E2F0;" points="328.5,137.5 328.5,57.5 408.5,57.5 	"/>
	<polygon style="fill:#00E2F0;" points="97.5,253.5 97.5,173.5 177.5,173.5 	"/>
	<polygon style="fill:#00E2F0;" points="213,253.5 213,173.5 293,173.5 	"/>
	<polygon style="fill:#00E2F0;" points="328.5,253.5 328.5,173.5 408.5,173.5 	"/>
	<polygon style="fill:#00E2F0;" points="97.5,369.5 97.5,289.5 177.5,289.5 	"/>
	<polygon style="fill:#00E2F0;" points="213,369.5 213,289.5 293,289.5 	"/>
	<polygon style="fill:#00E2F0;" points="328.5,369.5 328.5,289.5 408.5,289.5 	"/>
	<g>
		<path d="M437.5,0h-370C30.28,0,0,30.28,0,67.5v294v76C0,474.72,30.28,505,67.5,505h370c37.22,0,67.5-30.28,67.5-67.5v-76v-294
			C505,30.28,474.72,0,437.5,0z M490,403.882V437.5c0,28.949-23.552,52.5-52.5,52.5h-370C38.552,490,15,466.449,15,437.5v-33.618
			c0.099,0.122,0.202,0.241,0.302,0.363c0.106,0.129,0.213,0.256,0.319,0.384c0.613,0.736,1.239,1.462,1.882,2.172
			c0.064,0.07,0.129,0.139,0.193,0.209c0.641,0.701,1.297,1.389,1.967,2.062c0.062,0.062,0.121,0.125,0.183,0.187
			c0.679,0.678,1.376,1.338,2.084,1.987c0.122,0.112,0.243,0.224,0.366,0.335c0.695,0.628,1.402,1.24,2.123,1.839
			c0.131,0.109,0.262,0.216,0.394,0.323c0.738,0.604,1.487,1.196,2.251,1.77c0.086,0.064,0.173,0.126,0.259,0.19
			c0.768,0.571,1.547,1.127,2.34,1.665c0.058,0.039,0.114,0.08,0.172,0.119c0.804,0.543,1.623,1.064,2.451,1.573
			c0.137,0.084,0.272,0.169,0.41,0.252c0.807,0.487,1.625,0.958,2.453,1.412c0.151,0.083,0.303,0.164,0.454,0.246
			c0.843,0.454,1.694,0.893,2.558,1.312c0.109,0.053,0.219,0.103,0.328,0.155c0.878,0.42,1.764,0.823,2.662,1.206
			c0.046,0.02,0.091,0.041,0.137,0.06c0.909,0.385,1.831,0.745,2.76,1.09c0.148,0.055,0.294,0.111,0.442,0.165
			c0.899,0.327,1.807,0.634,2.723,0.923c0.168,0.053,0.337,0.105,0.505,0.157c0.927,0.285,1.861,0.553,2.804,0.798
			c0.129,0.034,0.259,0.064,0.389,0.097c0.973,0.247,1.953,0.477,2.942,0.681c0.027,0.006,0.054,0.012,0.081,0.018
			c0.996,0.204,2.002,0.38,3.014,0.54c0.153,0.024,0.305,0.05,0.458,0.073c0.971,0.146,1.949,0.27,2.934,0.374
			c0.183,0.019,0.367,0.038,0.551,0.056c0.989,0.097,1.983,0.174,2.984,0.228c0.15,0.008,0.3,0.013,0.45,0.02
			C65.376,428.968,66.434,429,67.5,429h370c1.066,0,2.124-0.032,3.178-0.081c0.15-0.007,0.3-0.012,0.45-0.02
			c1.001-0.053,1.995-0.131,2.984-0.228c0.184-0.018,0.367-0.036,0.551-0.056c0.984-0.104,1.962-0.228,2.934-0.374
			c0.153-0.023,0.305-0.049,0.458-0.073c1.012-0.159,2.018-0.336,3.014-0.54c0.027-0.006,0.054-0.012,0.081-0.018
			c0.989-0.204,1.969-0.434,2.942-0.681c0.129-0.033,0.26-0.063,0.389-0.097c0.943-0.245,1.877-0.513,2.804-0.798
			c0.169-0.052,0.337-0.104,0.505-0.157c0.916-0.289,1.824-0.596,2.723-0.923c0.148-0.054,0.295-0.11,0.442-0.165
			c0.929-0.345,1.85-0.706,2.76-1.09c0.046-0.019,0.091-0.04,0.137-0.06c0.898-0.382,1.785-0.786,2.662-1.206
			c0.109-0.052,0.219-0.102,0.328-0.155c0.864-0.419,1.715-0.858,2.558-1.312c0.152-0.082,0.303-0.163,0.454-0.246
			c0.828-0.454,1.646-0.924,2.453-1.412c0.137-0.083,0.273-0.168,0.41-0.252c0.828-0.508,1.647-1.03,2.451-1.573
			c0.058-0.039,0.114-0.08,0.172-0.119c0.792-0.538,1.572-1.094,2.34-1.665c0.086-0.064,0.174-0.126,0.259-0.19
			c0.764-0.573,1.512-1.165,2.251-1.77c0.131-0.108,0.263-0.215,0.394-0.323c0.72-0.599,1.428-1.212,2.123-1.839
			c0.123-0.111,0.244-0.223,0.366-0.335c0.708-0.649,1.404-1.309,2.084-1.987c0.062-0.062,0.122-0.125,0.183-0.187
			c0.67-0.674,1.325-1.361,1.967-2.062c0.064-0.07,0.13-0.138,0.193-0.209c0.643-0.71,1.269-1.435,1.882-2.172
			c0.106-0.128,0.213-0.255,0.319-0.384C489.798,404.123,489.901,404.004,490,403.882z M437.5,414h-370
			C38.552,414,15,390.449,15,361.5v-294C15,38.551,38.552,15,67.5,15h370c28.948,0,52.5,23.551,52.5,52.5v294
			C490,390.449,466.448,414,437.5,414z"/>
		<path d="M90,145h95V50H90V145z M105,65h65v65h-65V65z"/>
		<path d="M205.5,145h95V50h-95V145z M220.5,65h65v65h-65V65z"/>
		<path d="M321,145h95V50h-95V145z M336,65h65v65h-65V65z"/>
		<path d="M90,261h95v-95H90V261z M105,181h65v65h-65V181z"/>
		<path d="M205.5,261h95v-95h-95V261z M220.5,181h65v65h-65V181z"/>
		<path d="M321,261h95v-95h-95V261z M336,181h65v65h-65V181z"/>
		<path d="M90,377h95v-95H90V377z M105,297h65v65h-65V297z"/>
		<path d="M205.5,377h95v-95h-95V377z M220.5,297h65v65h-65V297z"/>
		<path d="M321,377h95v-95h-95V377z M336,297h65v65h-65V297z"/>
		<rect x="212.5" y="447" width="15" height="15"/>
		<rect x="182.5" y="447" width="15" height="15"/>
		<rect x="272.5" y="447" width="15" height="15"/>
		<rect x="242.5" y="447" width="15" height="15"/>
		<rect x="302.5" y="447" width="15" height="15"/>
	</g>
</g>
<g>
</g>
<g>
</g>
<g>
</g>
<g>
</g>
<g>
</g>
<g>
</g>
<g>
</g>
<g>
</g>
<g>
</g>
<g>
</g>
<g>
</g>
<g>
</g>
<g>
</g>
<g>
</g>
<g>
</g>
</svg>
