<?xml version="1.0" encoding="iso-8859-1"?>
<!-- Generator: Adobe Illustrator 19.0.0, SVG Export Plug-In . SVG Version: 6.00 Build 0)  -->
<svg version="1.1" id="Layer_1" xmlns="http://www.w3.org/2000/svg" xmlns:xlink="http://www.w3.org/1999/xlink" x="0px" y="0px"
	 viewBox="0 0 506 506" style="enable-background:new 0 0 506 506;" xml:space="preserve">
<g>
	<rect x="8" y="135.5" style="fill:#FFFFFF;" width="490" height="363"/>
	<rect x="43" y="55.5" style="fill:#E2324E;" width="420" height="80"/>
	<rect x="83" y="7.5" style="fill:#E2324E;" width="340" height="48"/>
	<rect x="8" y="135.5" style="fill:#E2324E;" width="490" height="76"/>
	<rect x="8" y="210.5" style="fill:#D8D7DA;" width="490" height="20"/>
	<rect x="43" y="115.5" style="fill:#A00B3F;" width="420" height="20"/>
	<rect x="83" y="35.5" style="fill:#A00B3F;" width="340" height="20"/>
	<rect x="8" y="478.5" style="fill:#D8D7DA;" width="490" height="20"/>
	<path style="fill:#FFFFFF;" d="M45.5,393.5h-15v-17h15V393.5z M45.5,361.5h-15v-96h15V361.5z"/>
	<path style="fill:#FFFFFF;" d="M176,93h-13V78h13V93z M148,93H77V78h71V93z"/>
	<g>
		<path d="M0.5,128v378h505V128H0.5z M490.5,491h-475V143h475V491z"/>
		<rect x="29" y="204" width="447" height="15"/>
		<rect x="260.5" y="166" width="15" height="15"/>
		<rect x="320.5" y="166" width="15" height="15"/>
		<rect x="110.5" y="166" width="15" height="15"/>
		<rect x="380.5" y="166" width="15" height="15"/>
		<rect x="350.5" y="166" width="15" height="15"/>
		<rect x="290.5" y="166" width="15" height="15"/>
		<rect x="170.5" y="166" width="15" height="15"/>
		<rect x="140.5" y="166" width="15" height="15"/>
		<rect x="200.5" y="166" width="15" height="15"/>
		<rect x="230.5" y="166" width="15" height="15"/>
		<polygon points="90.5,15 415.5,15 415.5,35.5 430.5,35.5 430.5,0 75.5,0 75.5,35.5 90.5,35.5 		"/>
		<polygon points="50.5,63 455.5,63 455.5,115.5 470.5,115.5 470.5,48 35.5,48 35.5,115.5 50.5,115.5 		"/>
	</g>
</g>
<g>
</g>
<g>
</g>
<g>
</g>
<g>
</g>
<g>
</g>
<g>
</g>
<g>
</g>
<g>
</g>
<g>
</g>
<g>
</g>
<g>
</g>
<g>
</g>
<g>
</g>
<g>
</g>
<g>
</g>
</svg>
